<svg width="42" height="18" viewBox="0 0 42 18" fill="none" xmlns="http://www.w3.org/2000/svg">
<path d="M26 9C26 10.5741 25.0047 12.2758 22.818 13.6816C20.6526 15.0736 17.5405 16 14 16C10.4595 16 7.34737 15.0736 5.18202 13.6816C2.99529 12.2758 2 10.5741 2 9C2 7.42594 2.99529 5.72415 5.18202 4.3184C7.34737 2.92639 10.4595 2 14 2C17.5405 2 20.6526 2.92639 22.818 4.3184C25.0047 5.72415 26 7.42594 26 9Z" stroke="#FB6627" stroke-width="4"/>
<path d="M40 9C40 10.5741 39.0047 12.2758 36.818 13.6816C34.6526 15.0736 31.5405 16 28 16C24.4595 16 21.3474 15.0736 19.182 13.6816C16.9953 12.2758 16 10.5741 16 9C16 7.42594 16.9953 5.72415 19.182 4.3184C21.3474 2.92639 24.4595 2 28 2C31.5405 2 34.6526 2.92639 36.818 4.3184C39.0047 5.72415 40 7.42594 40 9Z" stroke="#FB6627" stroke-width="4"/>
</svg>
