<svg width="21" height="21" viewBox="0 0 21 21" fill="none" xmlns="http://www.w3.org/2000/svg">
<path d="M7.37501 0.0834961C3.36027 0.0834961 0.0833435 3.36042 0.0833435 7.37516C0.0833435 11.3899 3.36027 14.6668 7.37501 14.6668C9.19584 14.6668 10.8594 13.9877 12.1398 12.8765L12.5833 13.32V14.6668L18.402 20.4855C18.977 21.0605 19.9104 21.0605 20.4854 20.4855C21.0604 19.9105 21.0604 18.9772 20.4854 18.4022L14.6667 12.5835H13.3198L12.8763 12.14C13.9875 10.8595 14.6667 9.19599 14.6667 7.37516C14.6667 3.36042 11.3897 0.0834961 7.37501 0.0834961ZM7.37501 2.16683C10.2638 2.16683 12.5833 4.48634 12.5833 7.37516C12.5833 10.264 10.2638 12.5835 7.37501 12.5835C4.48619 12.5835 2.16668 10.264 2.16668 7.37516C2.16668 4.48634 4.48619 2.16683 7.37501 2.16683Z" fill="#EFEFEF"/>
</svg>
